<svg xmlns="http://www.w3.org/2000/svg" viewBox="0 0 96 96" role="img" aria-label="AstraPDF logo">
  <defs>
    <linearGradient id="bg" x1="16" y1="12" x2="80" y2="84" gradientUnits="userSpaceOnUse">
      <stop offset="0" stop-color="#0f172a" />
      <stop offset="1" stop-color="#1d4ed8" />
    </linearGradient>
    <linearGradient id="page" x1="24" y1="18" x2="68" y2="78" gradientUnits="userSpaceOnUse">
      <stop offset="0" stop-color="#ffffff" />
      <stop offset="1" stop-color="#dbeafe" />
    </linearGradient>
    <linearGradient id="accent" x1="34" y1="56" x2="68" y2="36" gradientUnits="userSpaceOnUse">
      <stop offset="0" stop-color="#f59e0b" />
      <stop offset="1" stop-color="#fb7185" />
    </linearGradient>
  </defs>
  <rect x="6" y="6" width="84" height="84" rx="24" fill="url(#bg)" />
  <path d="M29 18h26l14 14v46c0 3.3-2.7 6-6 6H29c-3.3 0-6-2.7-6-6V24c0-3.3 2.7-6 6-6Z" fill="url(#page)" />
  <path d="M55 18v11c0 2.8 2.2 5 5 5h11" fill="none" stroke="#93c5fd" stroke-width="4" stroke-linecap="round" stroke-linejoin="round" />
  <rect x="33" y="34" width="24" height="5" rx="2.5" fill="#1e3a8a" opacity="0.9" />
  <rect x="33" y="44" width="30" height="5" rx="2.5" fill="#60a5fa" opacity="0.95" />
  <rect x="33" y="54" width="20" height="5" rx="2.5" fill="#1d4ed8" opacity="0.8" />
  <path d="M27 68c7-8 16-13 26-15 6-1 11 0 15 3l-4 8c-2 4-6 7-10 8-6 2-12 1-18-2l-9 4Z" fill="url(#accent)" />
  <path d="M60 52l10 10" stroke="#ffffff" stroke-width="4" stroke-linecap="round" />
</svg>